<?xml version="1.0" encoding="UTF-8" standalone="no"?>
<!-- Created with Inkscape (http://www.inkscape.org/) -->

<svg
   xmlns:dc="http://purl.org/dc/elements/1.1/"
   xmlns:cc="http://creativecommons.org/ns#"
   xmlns:rdf="http://www.w3.org/1999/02/22-rdf-syntax-ns#"
   xmlns:svg="http://www.w3.org/2000/svg"
   xmlns="http://www.w3.org/2000/svg"
   xmlns:sodipodi="http://sodipodi.sourceforge.net/DTD/sodipodi-0.dtd"
   xmlns:inkscape="http://www.inkscape.org/namespaces/inkscape"
   width="210mm"
   height="297mm"
   viewBox="0 0 744.09448819 1052.3622047"
   id="svg4149"
   version="1.1"
   inkscape:version="0.91 r13725"
   sodipodi:docname="rotate.svg">
  <defs
     id="defs4151" />
  <sodipodi:namedview
     id="base"
     pagecolor="#ffffff"
     bordercolor="#666666"
     borderopacity="1.0"
     inkscape:pageopacity="0.0"
     inkscape:pageshadow="2"
     inkscape:zoom="1.979899"
     inkscape:cx="373.41072"
     inkscape:cy="735.24292"
     inkscape:document-units="px"
     inkscape:current-layer="layer1"
     showgrid="false"
     inkscape:window-width="1106"
     inkscape:window-height="673"
     inkscape:window-x="757"
     inkscape:window-y="197"
     inkscape:window-maximized="0" />
  <metadata
     id="metadata4154">
    <rdf:RDF>
      <cc:Work
         rdf:about="">
        <dc:format>image/svg+xml</dc:format>
        <dc:type
           rdf:resource="http://purl.org/dc/dcmitype/StillImage" />
        <dc:title></dc:title>
      </cc:Work>
    </rdf:RDF>
  </metadata>
  <g
     inkscape:label="Layer 1"
     inkscape:groupmode="layer"
     id="layer1">
    <path
       style="fill:#000000"
       d="m 319.78574,368.32975 c -28.94979,-6.29861 -54.64949,-26.16855 -67.34008,-52.06455 -7.60597,-15.5205 -10.07969,-26.47024 -10.03132,-44.403 0.0444,-16.47043 2.32697,-26.95277 8.88242,-40.79146 5.62924,-11.88343 11.3004,-19.80531 20.62984,-28.8172 13.79343,-13.32394 29.77023,-21.877 47.84911,-25.61567 12.39332,-2.5629 33.51853,-2.06881 45.2085,1.05738 22.84468,6.10924 43.67192,21.25305 56.86804,41.34962 8.0902,12.3207 12.66585,24.79954 15.42493,42.06733 l 0.59919,3.75 14.70468,0.006 14.70469,0.006 -24.04231,23.9943 c -17.44747,17.41204 -24.67367,23.9937 -26.34405,23.9937 -1.66436,0 -8.92029,-6.55491 -26.20296,-23.6714 -13.14567,-13.01926 -23.7336,-23.83901 -23.52873,-24.04389 0.20488,-0.20487 6.61525,-0.46524 14.24528,-0.5786 l 13.87277,-0.20611 -0.22607,-3.80159 c -0.12435,-2.09088 -2.02672,-7.64406 -4.2275,-12.3404 -9.28856,-19.82128 -29.06591,-32.35801 -51.04643,-32.35801 -15.45205,0 -28.58242,5.46197 -39.4739,16.42034 -11.60597,11.67725 -16.88943,24.19645 -16.91474,40.07966 -0.0437,27.38998 19.92164,51.324 46.42348,55.65159 4.10584,0.67046 8.03716,1.64861 8.73626,2.17367 0.9677,0.72678 1.20639,5.51616 1,20.0647 l -0.2711,19.11004 -6.5,0.19088 c -3.575,0.10498 -9.425,-0.44552 -13,-1.22333 z"
       id="path4708"
       inkscape:connector-curvature="0" />
  </g>
</svg>
