<?xml version="1.0" encoding="UTF-8" standalone="no"?>
<!-- Created with Inkscape (http://www.inkscape.org/) -->

<svg
   xmlns:dc="http://purl.org/dc/elements/1.1/"
   xmlns:cc="http://creativecommons.org/ns#"
   xmlns:rdf="http://www.w3.org/1999/02/22-rdf-syntax-ns#"
   xmlns:svg="http://www.w3.org/2000/svg"
   xmlns="http://www.w3.org/2000/svg"
   xmlns:sodipodi="http://sodipodi.sourceforge.net/DTD/sodipodi-0.dtd"
   xmlns:inkscape="http://www.inkscape.org/namespaces/inkscape"
   width="210mm"
   height="297mm"
   viewBox="0 0 744.09448819 1052.3622047"
   id="svg5271"
   version="1.1"
   inkscape:version="0.91 r13725"
   sodipodi:docname="timeline-nocolor.svg">
  <defs
     id="defs5273" />
  <sodipodi:namedview
     id="base"
     pagecolor="#ffffff"
     bordercolor="#666666"
     borderopacity="1.0"
     inkscape:pageopacity="0.0"
     inkscape:pageshadow="2"
     inkscape:zoom="0.24748737"
     inkscape:cx="2122.2726"
     inkscape:cy="461.86254"
     inkscape:document-units="px"
     inkscape:current-layer="layer1"
     showgrid="false"
     inkscape:window-width="1920"
     inkscape:window-height="1018"
     inkscape:window-x="-8"
     inkscape:window-y="-8"
     inkscape:window-maximized="1" />
  <metadata
     id="metadata5276">
    <rdf:RDF>
      <cc:Work
         rdf:about="">
        <dc:format>image/svg+xml</dc:format>
        <dc:type
           rdf:resource="http://purl.org/dc/dcmitype/StillImage" />
        <dc:title></dc:title>
      </cc:Work>
    </rdf:RDF>
  </metadata>
  <g
     inkscape:label="Layer 1"
     inkscape:groupmode="layer"
     id="layer1">
    <path
       style="fill:#000000"
       d="m 325.06635,671.03394 c -5.36595,-2.42654 -52.01411,-48.32375 -54.55366,-53.67546 -3.0964,-6.52518 -2.24113,-7.72948 24.90722,-35.07161 13.83054,-13.92927 26.94644,-26.30427 29.14644,-27.5 l 4,-2.17407 84.30238,-0.27206 c 75.55497,-0.24383 84.6521,-0.10611 87.67273,1.32727 6.58387,3.12425 6.52489,2.59207 6.52489,58.87804 0,55.561 -0.0423,55.9859 -5.87156,59.00033 -2.68038,1.38608 -12.7346,1.56389 -87.32878,1.54446 -82.61688,-0.0215 -84.38949,-0.0626 -88.79966,-2.0569 z m -133,-16.83193 0,-6.9108 -4.72392,-2.28681 c -16.71651,-8.09232 -24.21798,-29.67053 -16.43294,-47.26989 2.64859,-5.98759 9.47696,-13.2209 15.90589,-16.84916 l 5.25097,-2.96347 -0.002,-50.15454 -0.002,-50.15454 -5.54015,-2.89486 c -16.41198,-8.57564 -23.34847,-29.49377 -15.59358,-47.02499 2.73223,-6.17666 10.14352,-13.83225 16.15284,-16.68528 l 4.98564,-2.36703 0,-50.52784 0,-50.52784 -5.04516,-2.39528 c -2.83325,-1.34514 -7.18652,-4.73827 -9.9294,-7.73942 C 161.0345,279.8802 166.45537,251.1574 187.7852,240.79457 l 4.2819,-2.08031 0,-6.80073 0,-6.80073 12,0 12,0 0,6.89903 0,6.89903 4.25,2.18368 c 10.42365,5.35573 18.42268,17.31692 19.49592,29.15285 1.30806,14.42549 -8.04033,30.60258 -20.71952,35.85447 l -3.0264,1.25358 0,50.87868 c 0,28.89018 0.38293,50.87868 0.88605,50.87868 2.62141,0 13.26766,8.58557 16.43349,13.25263 12.26911,18.08713 6.12198,42.90491 -13.06954,52.76563 l -4.25,2.18367 0.002,50.64904 0.002,50.64903 5.54657,2.89822 c 6.55935,3.42742 11.71254,9.01906 15.30003,16.60178 2.19397,4.63732 2.60577,6.91166 2.62538,14.5 0.0198,7.66443 -0.36778,9.83399 -2.6119,14.62001 -3.40213,7.25572 -8.9634,13.35416 -15.58648,17.09199 l -5.2784,2.97892 0,6.90454 0,6.90454 -12,0 -12,0 0,-6.91079 z m 132.5,-153.22948 c -5.7152,-2.93173 -53.20852,-50.44652 -54.58125,-54.60593 -2.04553,-6.19801 -0.41547,-8.35113 26.84492,-35.4589 24.07564,-23.94086 26.08681,-25.69558 31.16783,-27.19358 4.85861,-1.43242 19.15068,-1.60116 135.5,-1.59977 121.82771,10e-4 130.29025,0.11233 133.5685,1.75 7.08971,3.54171 6.99671,2.75721 6.99845,59.03057 0.002,53.99028 -0.0925,55.06908 -5.11532,58.58719 -2.12505,1.48844 -14.01986,1.62683 -136.35564,1.58649 -133.14713,-0.0439 -134.05376,-0.0577 -138.02749,-2.09607 z m 2.61536,-168.78429 c -4.85076,-1.67492 -7.8999,-4.37308 -30.75377,-27.21377 -26.81064,-26.79518 -28.46412,-28.99096 -26.44284,-35.11548 1.44234,-4.37032 48.93061,-51.73835 54.79141,-54.65267 4.1804,-2.07872 4.85635,-2.09352 95.61514,-2.09352 89.36554,0 91.46075,0.0439 93.90448,1.9661 4.80496,3.77959 4.84066,4.2483 4.54662,59.70041 -0.26781,50.50569 -0.33853,52.19451 -2.2764,54.36719 -4.53937,5.0894 -2.18407,4.96862 -96.21788,4.93365 -82.92143,-0.0308 -88.08028,-0.13559 -93.16676,-1.89191 z"
       id="path5830"
       inkscape:connector-curvature="0" />
  </g>
</svg>
