<?xml version="1.0" encoding="UTF-8" standalone="no"?>
<!-- Created with Inkscape (http://www.inkscape.org/) -->

<svg
   xmlns:dc="http://purl.org/dc/elements/1.1/"
   xmlns:cc="http://creativecommons.org/ns#"
   xmlns:rdf="http://www.w3.org/1999/02/22-rdf-syntax-ns#"
   xmlns:svg="http://www.w3.org/2000/svg"
   xmlns="http://www.w3.org/2000/svg"
   xmlns:sodipodi="http://sodipodi.sourceforge.net/DTD/sodipodi-0.dtd"
   xmlns:inkscape="http://www.inkscape.org/namespaces/inkscape"
   width="210mm"
   height="297mm"
   viewBox="0 0 744.09448819 1052.3622047"
   id="svg4710"
   version="1.1"
   inkscape:version="0.91 r13725"
   sodipodi:docname="tree2.svg">
  <defs
     id="defs4712" />
  <sodipodi:namedview
     id="base"
     pagecolor="#ffffff"
     bordercolor="#666666"
     borderopacity="1.0"
     inkscape:pageopacity="0.0"
     inkscape:pageshadow="2"
     inkscape:zoom="0.7"
     inkscape:cx="489.1734"
     inkscape:cy="712.78718"
     inkscape:document-units="px"
     inkscape:current-layer="layer1"
     showgrid="false"
     inkscape:window-width="896"
     inkscape:window-height="583"
     inkscape:window-x="819"
     inkscape:window-y="146"
     inkscape:window-maximized="0" />
  <metadata
     id="metadata4715">
    <rdf:RDF>
      <cc:Work
         rdf:about="">
        <dc:format>image/svg+xml</dc:format>
        <dc:type
           rdf:resource="http://purl.org/dc/dcmitype/StillImage" />
        <dc:title></dc:title>
      </cc:Work>
    </rdf:RDF>
  </metadata>
  <g
     inkscape:label="Layer 1"
     inkscape:groupmode="layer"
     id="layer1">
    <path
       style="fill:#000000"
       d="m 367.98169,371.41219 c -6.66145,-2.3625 -14.66703,-9.26825 -18.67743,-16.11149 l -3.17811,-5.42305 -30.25058,-0.4095 C 281.16202,348.99823 278.54068,348.36169 269.14618,338.1209 260.13438,328.2973 260,327.18104 260,262.1466 l 0,-57.08327 -5.04397,-2.27452 c -5.93559,-2.67658 -12.8031,-9.88519 -15.73337,-16.51482 -1.26878,-2.87058 -2.10768,-8.13859 -2.14428,-13.46535 -0.13913,-20.25264 13.65604,-34.53125 33.3621,-34.53125 13.92434,0 25.231,6.92721 31.35046,19.20736 8.32299,16.70208 0.16296,40.66179 -15.7359,46.20416 l -3.55504,1.23929 0,19.61286 c 0,17.88078 0.24838,20.09724 2.8125,25.09773 4.74319,9.25005 7.56047,10.04485 35.6055,10.04485 l 24.082,0 0,-2.90233 c 0,-10.92329 10.648,-24.95387 21.82915,-28.76367 23.70618,-8.07751 47.18771,8.0703 46.82575,32.20117 -0.11612,7.74254 -1.81638,12.58432 -6.98523,19.89191 -5.78776,8.18256 -13.62858,12.33344 -24.63108,13.03955 -10.7338,0.68885 -17.38977,-1.90389 -26.9473,-10.49694 l -6.08362,-5.46969 -29.19958,0 c -16.05978,0 -31.05848,-0.53313 -33.33045,-1.18471 l -4.13086,-1.18471 0.38911,22.74721 c 0.37103,21.69031 0.52842,22.94253 3.38743,26.95114 4.93399,6.91789 8.41145,7.67107 35.41813,7.67107 l 24.12175,0 2.22517,-6.2651 c 2.39577,-6.74544 8.45272,-13.65919 14.94394,-17.05786 2.45398,-1.28485 8.08805,-2.33713 14.33661,-2.67764 9.26887,-0.5051 10.97717,-0.22667 17.15532,2.79601 12.25311,5.99489 19.42576,17.60474 19.42576,31.44305 0,4.94293 -1.00001,8.48044 -4.08904,14.46483 -7.91141,15.32678 -25.45054,22.28081 -41.67927,16.52526 z m 18.99292,-20.33539 c 7.32026,-4.46389 8.72363,-15.46157 2.69375,-21.10998 -6.91783,-6.4802 -14.99745,-6.21076 -21.06742,0.70257 -3.44212,3.92035 -3.8079,5.06267 -3.23856,10.11384 1.22483,10.86662 12.14403,16.06727 21.61223,10.29357 z m 0.2544,-79.59404 c 3.4342,-2.40541 6.52099,-8.16963 6.52099,-12.17719 0,-4.64634 -5.17454,-11.3216 -9.99667,-12.89592 -5.70404,-1.86223 -10.97987,-0.26514 -15.45822,4.67951 -3.1393,3.46618 -3.50056,4.65632 -2.93538,9.67051 0.87798,7.78949 6.1798,12.67397 13.75686,12.67397 2.92992,0 6.58052,-0.8779 8.11242,-1.95088 z M 278.4869,183.9128 c 1.57404,-1.01834 3.7783,-3.77324 4.89835,-6.122 6.27398,-13.15667 -11.26728,-25.68182 -22.23842,-15.87911 -2.9596,2.64439 -4.04646,4.84292 -4.53445,9.17237 -0.57124,5.06805 -0.20744,6.18906 3.30796,10.19288 5.41234,6.16431 11.72698,7.06079 18.56656,2.63586 z"
       id="path5269"
       inkscape:connector-curvature="0" />
  </g>
</svg>
